# xmcd
# Copyright (C) 1995-1998 Ti Kan
#
# Track frame offsets:
#       150
#       18211
#       35682
#       53336
#       76539
#       99621
#       113537
#       131778
#       152238
#       167356
#       185068
#       215350
#
# Disc length: 3036 seconds
#
# Revision: 0
# Processed by: cddbd v1.5.2PL0 Copyright (c) Steve Scherf et al.
# Submitted via: CD-Import v1.0
#
DISCID=8c0bda0c
DTITLE=Lhasa - Lhasa
DYEAR=09
DGENRE=
TTITLE0=Is Anything Wrong
TTITLE1=Rising
TTITLE2=Love Came Here
TTITLE3=What Kind Of Heart
TTITLE4=Bells
TTITLE5=Fool's Gold
TTITLE6=A Fish On Land
TTITLE7=Where Do You Go
TTITLE8=The Lonely Spider
TTITLE9=1001 Nights
TTITLE10=I'm Going In
TTITLE11=Anyone And Everyone
EXTD=
EXTT0=
EXTT1=
EXTT2=
EXTT3=
EXTT4=
EXTT5=
EXTT6=
EXTT7=
EXTT8=
EXTT9=
EXTT10=
EXTT11=
PLAYORDER=
